<svg aria-hidden="true" style="position: absolute; width: 0; height: 0; overflow: hidden;" version="1.1" xmlns="http://www.w3.org/2000/svg" xmlns:xlink="http://www.w3.org/1999/xlink">
<defs>
<symbol id="icon-searchFilter" viewBox="0 0 32 32">
<path fill="#666" style="fill: var(--color1, #666)" d="M31.562 27.669l-6.231-6.231c-0.281-0.281-0.662-0.438-1.062-0.438h-1.019c1.725-2.206 2.75-4.981 2.75-8 0-7.181-5.819-13-13-13s-13 5.819-13 13c0 7.181 5.819 13 13 13 3.019 0 5.794-1.025 8-2.75v1.019c0 0.4 0.156 0.781 0.438 1.062l6.231 6.231c0.587 0.588 1.538 0.588 2.119 0l1.769-1.769c0.588-0.587 0.588-1.538 0.006-2.125zM13 21c-4.419 0-8-3.575-8-8 0-4.419 3.575-8 8-8 4.419 0 8 3.575 8 8 0 4.419-3.575 8-8 8z"></path>
</symbol>
<symbol id="icon-fileMedical" viewBox="0 0 25 32">
<path fill="#666" style="fill: var(--color1, #666)" d="M23.562 6.563l-6.119-6.125c-0.281-0.281-0.663-0.438-1.063-0.438h-0.381v8h8v-0.381c0-0.394-0.156-0.775-0.438-1.056zM14 8.5v-8.5h-12.5c-0.831 0-1.5 0.669-1.5 1.5v29c0 0.831 0.669 1.5 1.5 1.5h21c0.831 0 1.5-0.669 1.5-1.5v-20.5h-8.5c-0.825 0-1.5-0.675-1.5-1.5zM18 18.5v3c0 0.275-0.225 0.5-0.5 0.5h-3.5v3.5c0 0.275-0.225 0.5-0.5 0.5h-3c-0.275 0-0.5-0.225-0.5-0.5v-3.5h-3.5c-0.275 0-0.5-0.225-0.5-0.5v-3c0-0.275 0.225-0.5 0.5-0.5h3.5v-3.5c0-0.275 0.225-0.5 0.5-0.5h3c0.275 0 0.5 0.225 0.5 0.5v3.5h3.5c0.275 0 0.5 0.225 0.5 0.5z"></path>
</symbol>
<symbol id="icon-heart" viewBox="0 0 34 32">
<path fill="#666" style="fill: var(--color1, #666)" d="M21.442 15.183l-3.328 6.656c-0.402 0.81-1.567 0.783-1.935-0.040l-3.81-8.458-2.009 4.801h-6.301l12.221 12.489c0.475 0.489 1.245 0.489 1.721 0l12.228-12.489h-7.306l-1.48-2.96zM31.721 3.806l-0.161-0.167c-3.449-3.522-9.094-3.522-12.549 0l-1.868 1.915-1.868-1.908c-3.449-3.529-9.1-3.529-12.549 0l-0.161 0.161c-3.261 3.335-3.402 8.645-0.489 12.194h6.857l2.404-5.772c0.362-0.864 1.58-0.884 1.969-0.027l3.897 8.659 3.281-6.556c0.395-0.79 1.52-0.79 1.915 0l1.848 3.696h7.962c2.913-3.549 2.772-8.859-0.489-12.194z"></path>
</symbol>
<symbol id="icon-skull" viewBox="0 0 32 32">
<path fill="#666" style="fill: var(--color1, #666)" d="M16 0c-8.838 0-16 6.269-16 14 0 4.381 2.306 8.287 5.906 10.856 0.6 0.431 0.95 1.131 0.844 1.869l-0.588 4.137c-0.088 0.6 0.375 1.137 0.981 1.137h4.856v-3.5c0-0.275 0.225-0.5 0.5-0.5h1c0.275 0 0.5 0.225 0.5 0.5v3.5h4v-3.5c0-0.275 0.225-0.5 0.5-0.5h1c0.275 0 0.5 0.225 0.5 0.5v3.5h4.856c0.606 0 1.069-0.538 0.981-1.137l-0.588-4.137c-0.106-0.731 0.237-1.438 0.844-1.869 3.6-2.569 5.906-6.475 5.906-10.856 0-7.731-7.162-14-16-14zM10 20c-2.206 0-4-1.794-4-4s1.794-4 4-4c2.206 0 4 1.794 4 4s-1.794 4-4 4zM22 20c-2.206 0-4-1.794-4-4s1.794-4 4-4c2.206 0 4 1.794 4 4s-1.794 4-4 4z"></path>
</symbol>
</defs>
</svg>